<?xml version="1.0" encoding="utf-8"?>
<!-- Generator: Adobe Illustrator 16.0.0, SVG Export Plug-In . SVG Version: 6.00 Build 0)  -->
<!DOCTYPE svg PUBLIC "-//W3C//DTD SVG 1.1//EN" "http://www.w3.org/Graphics/SVG/1.1/DTD/svg11.dtd">
<svg version="1.1" id="Layer_1" xmlns="http://www.w3.org/2000/svg" xmlns:xlink="http://www.w3.org/1999/xlink" x="0px" y="0px"
	 width="20px" height="20px" viewBox="0 0 20 20" enable-background="new 0 0 20 20" xml:space="preserve">
<path fill="#4E4E4E" d="M19.938,19.636L10.301,10l9.635-9.637c0.083-0.082,0.083-0.217,0-0.301s-0.219-0.084-0.302,0L9.999,9.699
	L0.364,0.064c-0.083-0.084-0.218-0.084-0.302,0c-0.083,0.083-0.083,0.219,0,0.301L9.697,10l-9.635,9.636
	c-0.083,0.084-0.083,0.219,0,0.302C0.104,19.979,0.158,20,0.213,20s0.109-0.021,0.151-0.062l9.635-9.636l9.637,9.636
	C19.678,19.979,19.732,20,19.787,20c0.054,0,0.108-0.021,0.15-0.062C20.021,19.854,20.021,19.72,19.938,19.636z"/>
</svg>
