<?xml version="1.0" encoding="utf-8"?>
<!-- Generator: Adobe Illustrator 16.0.0, SVG Export Plug-In . SVG Version: 6.00 Build 0)  -->
<!DOCTYPE svg PUBLIC "-//W3C//DTD SVG 1.1//EN" "http://www.w3.org/Graphics/SVG/1.1/DTD/svg11.dtd">
<svg version="1.1" id="Layer_1" xmlns="http://www.w3.org/2000/svg" xmlns:xlink="http://www.w3.org/1999/xlink" x="0px" y="0px"
	 width="100px" height="100px" viewBox="0 0 100 100" enable-background="new 0 0 100 100" xml:space="preserve">
<g id="menuBars">
	<path fill="#4E4E4E" d="M92.301,81H7.7c-3.503,0-6.345-3.496-6.345-7s2.842-7,6.345-7h84.601c3.502,0,6.346,3.496,6.346,7
		S95.803,81,92.301,81z"/>
	<path fill="#4E4E4E" d="M92.301,51H7.7c-3.503,0-6.345-2.997-6.345-6.5S4.196,38,7.7,38h84.601c3.502,0,6.346,2.997,6.346,6.5
		S95.803,51,92.301,51z"/>
	<path fill="#4E4E4E" d="M92.301,22H7.7c-3.503,0-6.345-3.497-6.345-7c0-3.503,2.842-7,6.345-7h84.601c3.502,0,6.346,3.497,6.346,7
		C98.646,18.503,95.803,22,92.301,22z"/>
</g>
</svg>
