<?xml version="1.0" encoding="utf-8"?>
<!-- Generator: Adobe Illustrator 16.0.0, SVG Export Plug-In . SVG Version: 6.00 Build 0)  -->
<!DOCTYPE svg PUBLIC "-//W3C//DTD SVG 1.1//EN" "http://www.w3.org/Graphics/SVG/1.1/DTD/svg11.dtd">
<svg version="1.1" id="Layer_1" xmlns="http://www.w3.org/2000/svg" xmlns:xlink="http://www.w3.org/1999/xlink" x="0px" y="0px"
	 width="15px" height="15px" viewBox="0 0 15 15" enable-background="new 0 0 15 15" xml:space="preserve">
<path fill="#4E4E4E" d="M14.908,14.465L7.942,7.5l6.965-6.965c0.122-0.122,0.122-0.32,0-0.443c-0.123-0.123-0.321-0.123-0.443,0
	L7.499,7.057L0.535,0.093c-0.123-0.123-0.321-0.123-0.443,0c-0.123,0.122-0.123,0.32,0,0.442L7.057,7.5l-6.965,6.965
	c-0.123,0.123-0.123,0.321,0,0.443C0.153,14.969,0.233,15,0.313,15c0.08,0,0.16-0.031,0.221-0.092l6.964-6.965l6.966,6.965
	C14.526,14.969,14.606,15,14.688,15c0.079,0,0.159-0.031,0.221-0.092C15.03,14.786,15.03,14.588,14.908,14.465z"/>
</svg>
